<svg width="170" height="60" viewBox="0 0 170 60" fill="none" xmlns="http://www.w3.org/2000/svg">
<path d="M0 60V0H170V13.5H160V10H10V50H160V46.5H170V60H0ZM46.51 29.981C46.51 21.258 53.487 16.444 63.81 16.444C74.133 16.444 81.11 21.258 81.11 29.981C81.11 38.704 74.132 43.518 63.81 43.518C53.488 43.518 46.51 38.7 46.51 29.979V29.981ZM56.83 29.981C56.83 33.601 59.446 35.773 63.808 35.773C68.17 35.773 70.785 33.601 70.785 29.981C70.785 26.361 68.169 24.19 63.808 24.19C59.447 24.19 56.83 26.359 56.83 29.979V29.981ZM160 42.5V27C157.591 28.1149 155.033 28.8745 152.406 29.255V21.69C155.858 21.219 158.606 20.004 160 17.5H170V42.5H160ZM135.5 42.5L129.364 33.672L125.475 37.472L125.5 42.5H115.5V17.5H125.5L125.476 27.12L135 17.5H146.5L136.414 27.554L147 42.5H135.5ZM103 42.5L97 35.5H92.5V42.5H82.5V17.5H101C108.05 17.5 113.666 20.207 113.666 26.5C113.666 30.627 111.231 33.3 107.566 34.644L114 42.5H103ZM92.5 29.5H100C101.963 29.5 103.382 28.677 103.382 26.795C103.382 24.913 101.962 24 100 24H92.5V29.5ZM28.5 42.5V34L17.5 17.5H28.5L33.864 26.577L39.5 17.5H50L39 34V42.5H28.5Z" fill="#00AEEF"/>
</svg>
